<svg xmlns="http://www.w3.org/2000/svg" width="400" height="600" viewBox="0 0 400 600"><rect width="100%" height="100%" fill="#DDDDDD"/><path fill="#999999" d="M98.9 281.96V293H86.18v-11.04H79.7v28h6.48v-11.48H98.9v11.48h6.48v-28Zm33.76 17.32c0-6.92-4.88-11.16-11.2-11.16-6.56 0-11.48 4.64-11.48 11.08 0 6.4 4.84 11.08 12.28 11.08 3.88 0 6.88-1.2 8.88-3.48l-3.32-3.6c-1.48 1.4-3.12 2.08-5.4 2.08-3.28 0-5.56-1.64-6.16-4.32h16.28c.04-.52.12-1.2.12-1.68m-11.16-6.44c2.8 0 4.84 1.76 5.28 4.48h-10.6c.44-2.76 2.48-4.48 5.32-4.48m21.28-1.56v-2.84h-5.96v21.52h6.24V299.8c0-4.12 2.28-6 5.72-6 .48 0 .88.04 1.4.08v-5.76c-3.32 0-5.88 1.08-7.4 3.16m21.16 19c6.84 0 11.8-4.6 11.8-11.08s-4.96-11.08-11.8-11.08-11.84 4.6-11.84 11.08 5 11.08 11.84 11.08m0-5.12c-3.12 0-5.52-2.24-5.52-5.96s2.4-5.96 5.52-5.96 5.48 2.24 5.48 5.96-2.36 5.96-5.48 5.96m27.72 4.8h6.48v-28h-6.48Zm40.24-21.84c-3.24 0-6.04 1.32-7.76 3.52-1.52-2.36-4.08-3.52-7.08-3.52-2.76 0-5.16.96-6.76 2.8v-2.48h-5.96v21.52h6.24v-10.8c0-3.84 1.96-5.64 4.72-5.64 2.6 0 4.08 1.6 4.08 5.08v11.36h6.24v-10.8c0-3.84 1.96-5.64 4.76-5.64 2.52 0 4.08 1.6 4.08 5.08v11.36h6.24v-12.32c0-6.56-3.68-9.52-8.8-9.52m23.08 0c-3.44 0-6.92.92-9.28 2.6l2.24 4.36c1.56-1.24 3.92-2 6.2-2 3.36 0 4.96 1.56 4.96 4.24h-4.96c-6.56 0-9.24 2.64-9.24 6.44 0 3.72 3 6.52 8.04 6.52 3.16 0 5.4-1.04 6.56-3v2.68h5.84v-12.28c0-6.52-3.8-9.56-10.36-9.56m-.48 17.96c-2.2 0-3.52-1.04-3.52-2.6 0-1.44.92-2.52 3.84-2.52h4.28v2.2c-.72 1.96-2.52 2.92-4.6 2.92m33-17.64v2.76c-1.64-2.08-4.12-3.08-7.12-3.08-5.96 0-10.76 4.12-10.76 10.4s4.8 10.4 10.76 10.4c2.8 0 5.16-.88 6.8-2.68v.92c0 3.88-1.92 5.88-6.32 5.88-2.76 0-5.76-.96-7.6-2.44l-2.48 4.48c2.52 1.96 6.48 2.96 10.56 2.96 7.76 0 12.08-3.68 12.08-11.68v-17.92Zm-5.88 15.36c-3.28 0-5.68-2.12-5.68-5.28s2.4-5.28 5.68-5.28 5.64 2.12 5.64 5.28-2.36 5.28-5.64 5.28m38.68-4.52c0-6.92-4.88-11.16-11.2-11.16-6.56 0-11.48 4.64-11.48 11.08 0 6.4 4.84 11.08 12.28 11.08 3.88 0 6.88-1.2 8.88-3.48l-3.32-3.6c-1.48 1.4-3.12 2.08-5.4 2.08-3.28 0-5.56-1.64-6.16-4.32h16.28c.04-.52.12-1.2.12-1.68m-11.16-6.44c2.8 0 4.84 1.76 5.28 4.48h-10.6c.44-2.76 2.48-4.48 5.32-4.48"/></svg>